<svg xmlns="http://www.w3.org/2000/svg" version="1.1" xmlns:xlink="http://www.w3.org/1999/xlink" xmlns:svgjs="http://svgjs.dev/svgjs" width="1000" height="623" viewBox="0 0 1000 623"><g transform="matrix(1,0,0,1,-0.6060606060606233,0.2522267206477409)"><svg viewBox="0 0 396 247" data-background-color="#00080f" preserveAspectRatio="xMidYMid meet" height="623" width="1000" xmlns="http://www.w3.org/2000/svg" xmlns:xlink="http://www.w3.org/1999/xlink"><g id="tight-bounds" transform="matrix(1,0,0,1,0.2400000000000091,-0.09999999999999432)"><svg viewBox="0 0 395.52 247.2" height="247.2" width="395.52"><g><svg></svg></g><g><svg viewBox="0 0 395.52 247.2" height="247.2" width="395.52"><g transform="matrix(1,0,0,1,75.54432,79.58470093237031)"><svg viewBox="0 0 244.43135999999998 88.03059813525937" height="88.03059813525937" width="244.43135999999998"><g><svg viewBox="0 0 244.43135999999998 88.03059813525937" height="88.03059813525937" width="244.43135999999998"><g><svg viewBox="0 0 244.43135999999998 88.03059813525937" height="88.03059813525937" width="244.43135999999998"><g><svg viewBox="0 0 244.43135999999998 88.03059813525937" height="88.03059813525937" width="244.43135999999998"><g><svg viewBox="0 0 244.43135999999998 88.03059813525937" height="88.03059813525937" width="244.43135999999998"><g><svg viewBox="0 0 244.43135999999998 88.03059813525937" height="88.03059813525937" width="244.43135999999998"><g transform="matrix(1,0,0,1,0,0)"><svg width="244.43135999999998" viewBox="1.25 -42.29999923706055 151.29000854492188 54.849998474121094" height="88.03059813525937" data-palette-color="#ffffff"><g class="undefined-text-0" data-fill-palette-color="primary" id="text-0"><path d="M30.2 0L25.3-12.7 9.15-12.7 4.25 0 1.25 0 16-38.35 18.4-38.35 33.2 0 30.2 0ZM10.15-15.4L24.25-15.4 17.2-33.7 10.15-15.4ZM50.85-27.9Q55.7-27.9 58-25.3 60.3-22.7 60.3-16.5L60.3-16.5 60.3 0 57.6 0 57.6-16.5Q57.6-19.75 56.97-21.63 56.35-23.5 54.87-24.35 53.4-25.2 50.85-25.2L50.85-25.2Q46.3-25.2 42.15-21.3L42.15-21.3 42.15 0 39.45 0 39.45-27.3 42.15-27.3 42.15-24Q44.1-25.75 46.37-26.83 48.65-27.9 50.85-27.9L50.85-27.9ZM88.5-42.3L91.2-42.3 91.2 0 88.5 0 88.5-2.85Q86.6-1.15 84.5-0.15 82.4 0.85 80.3 0.85L80.3 0.85Q74.85 0.85 71.62-2.85 68.4-6.55 68.4-13.65L68.4-13.65Q68.4-20.7 71.62-24.4 74.85-28.1 80.3-28.1L80.3-28.1Q82.4-28.1 84.5-27.1 86.6-26.1 88.5-24.4L88.5-24.4 88.5-42.3ZM80.3-1.85Q84.55-1.85 88.5-5.55L88.5-5.55 88.5-21.7Q84.55-25.4 80.3-25.4L80.3-25.4Q75.8-25.4 73.5-22.4 71.2-19.4 71.2-13.65L71.2-13.65Q71.2-7.85 73.5-4.85 75.8-1.85 80.3-1.85L80.3-1.85ZM119.04-27.3L121.94-27.3 109.19 4.45Q107.64 8.35 106.89 9.78 106.14 11.2 104.99 11.88 103.84 12.55 101.54 12.55L101.54 12.55Q100.49 12.55 99.49 12.35L99.49 12.35 99.49 9.65Q100.49 9.85 101.79 9.85L101.79 9.85Q102.89 9.85 103.59 9.35 104.29 8.85 104.84 7.78 105.39 6.7 106.39 4.2L106.39 4.2 108.14-0.15 97.19-27.3 100.09-27.3 109.59-3.75 119.04-27.3Z" fill="#ffffff" data-fill-palette-color="primary"></path><path d="M145.79-19.25Q152.54-17 152.54-10.1L152.54-10.1Q152.54-5 149.59-2.5 146.64 0 139.69 0L139.69 0 127.94 0 127.94-37.9 139.69-37.9Q145.94-37.9 148.49-35.45 151.04-33 151.04-27.75L151.04-27.75Q151.04-21.65 145.79-19.25L145.79-19.25ZM130.74-35.3L130.74-20.3 139.69-20.3Q143.94-20.3 146.04-22.18 148.14-24.05 148.14-27.95L148.14-27.95Q148.14-30.65 147.37-32.23 146.59-33.8 144.74-34.55 142.89-35.3 139.69-35.3L139.69-35.3 130.74-35.3ZM149.64-10.2Q149.64-14.1 147.14-15.9 144.64-17.7 139.69-17.7L139.69-17.7 130.74-17.7 130.74-2.6 139.69-2.6Q145.14-2.6 147.39-4.42 149.64-6.25 149.64-10.2L149.64-10.2Z" fill="#374151" data-fill-palette-color="secondary"></path></g></svg></g></svg></g></svg></g></svg></g></svg></g></svg></g></svg></g><path d="M218.319 73.585L218.319 19.918 10.955 19.918 10.955 227.282 218.319 227.282 218.319 173.615 210.381 173.615 210.381 219.344 18.894 219.344 18.894 27.856 210.381 27.856 210.381 73.585Z" fill="#ffffff" stroke="transparent" data-fill-palette-color="primary"></path></svg></g><defs></defs></svg><rect width="395.52" height="247.2" fill="none" stroke="none" visibility="hidden"></rect></g></svg></g></svg>